<svg width="44" height="46" viewBox="0 0 44 46" fill="none" xmlns="http://www.w3.org/2000/svg">
<g filter="url(#filter0_d_374_254434)">
<rect x="2" width="40" height="40" rx="7" fill="white"/>
<rect x="2.5" y="0.5" width="39" height="39" rx="6.5" stroke="#E2E2E2"/>
</g>
<path d="M31.25 15.3438H26C25.6413 15.3438 25.3438 15.0462 25.3438 14.6875C25.3438 14.3288 25.6413 14.0312 26 14.0312H31.25C31.6087 14.0312 31.9062 14.3288 31.9062 14.6875C31.9062 15.0462 31.6087 15.3438 31.25 15.3438Z" fill="#747474"/>
<path d="M17.25 15.3438H13.75C13.3913 15.3438 13.0938 15.0462 13.0938 14.6875C13.0938 14.3288 13.3913 14.0312 13.75 14.0312H17.25C17.6087 14.0312 17.9062 14.3288 17.9062 14.6875C17.9062 15.0462 17.6087 15.3438 17.25 15.3438Z" fill="#747474"/>
<path d="M20.75 18.4062C18.7025 18.4062 17.0312 16.735 17.0312 14.6875C17.0312 12.64 18.7025 10.9688 20.75 10.9688C22.7975 10.9688 24.4688 12.64 24.4688 14.6875C24.4688 16.735 22.7975 18.4062 20.75 18.4062ZM20.75 12.2812C19.42 12.2812 18.3438 13.3575 18.3438 14.6875C18.3438 16.0175 19.42 17.0938 20.75 17.0938C22.08 17.0938 23.1562 16.0175 23.1562 14.6875C23.1562 13.3575 22.08 12.2812 20.75 12.2812Z" fill="#747474"/>
<path d="M31.25 24.9688H27.75C27.3913 24.9688 27.0938 24.6712 27.0938 24.3125C27.0938 23.9538 27.3913 23.6562 27.75 23.6562H31.25C31.6087 23.6562 31.9062 23.9538 31.9062 24.3125C31.9062 24.6712 31.6087 24.9688 31.25 24.9688Z" fill="#747474"/>
<path d="M19 24.9688H13.75C13.3913 24.9688 13.0938 24.6712 13.0938 24.3125C13.0938 23.9538 13.3913 23.6562 13.75 23.6562H19C19.3587 23.6562 19.6562 23.9538 19.6562 24.3125C19.6562 24.6712 19.3587 24.9688 19 24.9688Z" fill="#747474"/>
<path d="M24.25 28.0312C22.2025 28.0312 20.5312 26.36 20.5312 24.3125C20.5312 22.265 22.2025 20.5938 24.25 20.5938C26.2975 20.5938 27.9688 22.265 27.9688 24.3125C27.9688 26.36 26.2975 28.0312 24.25 28.0312ZM24.25 21.9062C22.92 21.9062 21.8438 22.9825 21.8438 24.3125C21.8438 25.6425 22.92 26.7188 24.25 26.7188C25.58 26.7188 26.6562 25.6425 26.6562 24.3125C26.6562 22.9825 25.58 21.9062 24.25 21.9062Z" fill="#747474"/>
<defs>
<filter id="filter0_d_374_254434" x="0" y="0" width="44" height="46" filterUnits="userSpaceOnUse" color-interpolation-filters="sRGB">
<feFlood flood-opacity="0" result="BackgroundImageFix"/>
<feColorMatrix in="SourceAlpha" type="matrix" values="0 0 0 0 0 0 0 0 0 0 0 0 0 0 0 0 0 0 127 0" result="hardAlpha"/>
<feOffset dy="4"/>
<feGaussianBlur stdDeviation="1"/>
<feComposite in2="hardAlpha" operator="out"/>
<feColorMatrix type="matrix" values="0 0 0 0 0 0 0 0 0 0 0 0 0 0 0 0 0 0 0.15 0"/>
<feBlend mode="normal" in2="BackgroundImageFix" result="effect1_dropShadow_374_254434"/>
<feBlend mode="normal" in="SourceGraphic" in2="effect1_dropShadow_374_254434" result="shape"/>
</filter>
</defs>
</svg>
